<svg xmlns="http://www.w3.org/2000/svg" xmlns:xlink="http://www.w3.org/1999/xlink" viewBox="0 0 512.15 512.15"><defs><symbol id="Doodle" data-name="Doodle" viewBox="0 0 512.15 512.15"><path d="M0,291.56a10.23,10.23,0,0,1,3-.62c6.17.65,10.46-3,11.31-9,.81-5.75,2-11.45,3.36-17.11.82-3.53.51-6.62-1.87-9.46a21.88,21.88,0,0,1-2.07-3.2c-1.08-1.87-1.1-3.71.68-5.15,2.08-1.69,1.65-3.53.73-5.61-1.71-3.89-3.31-7.84-4.93-11.77a2.84,2.84,0,0,1-.29-1.32c.21-1.65.5-3.29.76-4.93a34.36,34.36,0,0,1,3.94,2.34c1.75,1.37,5-.08,6.07-2.9.24-.59.32-1.23.5-1.84,2.11-7.16,7.27-11.48,13.65-14.64a7,7,0,0,1,2.61-.72c.74,0,1.84.05,2.17.52s-.08,1.46-.23,2.22A1.26,1.26,0,0,1,39,209c-4.14,3.07-4.26,7.42-4.1,12A20.05,20.05,0,0,1,31.62,233c-1.12,1.7-1.08,3,.53,4.47,3.32,3.09,2.48,7.51-1.7,9.54-1.45.7-3,1.29-2.25,3.33,2.22,5.92,1.26,11.84.11,17.76a20.56,20.56,0,0,0,.86,12.17c2.82,7.11,1.79,14.06-4,19.85a17.81,17.81,0,0,0-2.89,4.57,2.11,2.11,0,0,0,.25,2,2.1,2.1,0,0,0,1.94.05,11.78,11.78,0,0,0,3.38-2.6c4.92-6.31,8.76-13.14,9.85-21.25.09-.7.78-1.32,1.2-2,.64.54,1.66,1,1.86,1.63a23.89,23.89,0,0,1,1.2,6.11c.13,5.72,0,11.46,0,17.19a10.36,10.36,0,0,0,.89,2.84,10.47,10.47,0,0,0,2.62-1.7c2.67-3.17,4.74-6.66,5-11a24,24,0,0,1,.55-2.81,18.91,18.91,0,0,1,2.66,1.74c4.68,4.49,6,10.11,4.82,16.26C57,319.27,55,327.34,55.7,335.71a29.29,29.29,0,0,0,1.6,7.4c1.17,3.24,3.23,4.24,6.64,3.82,3.12-.37,4.76.4,5.44,3.53A55.33,55.33,0,0,1,70.49,361c.09,4.27-.28,8.54-.42,12.82,0,1.61,0,3.22,0,5.49,1.14-1,1.74-1.59,2.39-2.1,2.75-2.15,5.66-1.17,6.23,2.23.66,3.94.94,7.95,1.65,11.88.77,4.28,2.52,4.81,5.87,2a15.25,15.25,0,0,0,2-1.88c3.75-4.59,8.65-4.79,13.93-3.79,2.21.43,2.59,2,2.68,3.84.18,3.73.18,7.47.54,11.18.09,1,1.15,1.95,1.77,2.93.56-.8,1.16-1.57,1.67-2.4,1.71-2.81,3.4-5.64,5.23-8.68l6.79,6.47c1.24-7.86,2.4-15.32,3.61-23-2.15,1-4.14,2-6.22,2.76-4.49,1.69-7.68.88-10.66-2.87-6.4-8.05-8.61-16.73-3.54-26.35a7.35,7.35,0,0,1,.46-1c3.87-5.16,1.1-9.46-2-13.51-.62-.81-2.62-1.08-3.82-.82-3.19.67-6.26,1.89-9.44,2.64-1.08.25-2.85.12-3.39-.56a3.89,3.89,0,0,1,0-3.49,37.07,37.07,0,0,1,4.34-6.22c5.71-6.76,7.21-14.13,4.64-22.72-1.49-5-1.88-10.36-2.56-15.58-.12-.94.63-2.73,1.24-2.86,1.14-.23,3,.06,3.62.86a51,51,0,0,1,4.15,6.67c1.16,2,2.27,4,3.4,6l1-.14a14.09,14.09,0,0,0,1-3.13c.27-4.35.39-8.72.58-13.08.08-1.91.21-3.81.25-5.72.11-4.87,2.45-8.13,6.8-10.29a6.73,6.73,0,0,0,3.14-3.39c1.07-3,2.27-6.13,2.21-9.2-.13-7.85,4.82-12.66,9.55-17.69,2.05-2.16,4.32-4.11,6.55-6.1a39.08,39.08,0,0,1,4-3.21,5.65,5.65,0,0,1,2-.46,5.74,5.74,0,0,1,.24,2.28,15.78,15.78,0,0,1-1.67,3.1c-.75,1.23-1.55,2.42-2.32,3.63l.47.52c.9-.73,1.77-1.51,2.71-2.19,3.16-2.26,6.19-4.78,9.59-6.6a10.8,10.8,0,0,1,6.44-.85c2.15.36,2.4,2.36.77,3.92a24.54,24.54,0,0,1-2.87,2.06c-5.65,4.06-10.72,8.67-13.8,15.06a7.71,7.71,0,0,0-.56,4.39,10.2,10.2,0,0,1,1.67-1.06c1.49-.58,3-1.42,4.53-1.5,2.89-.16,4.34,1.77,3.26,4.42a18.64,18.64,0,0,1-3.63,5.66,9.92,9.92,0,0,0-2.77,7,20.43,20.43,0,0,1-1.34,7.57c-1.7,3.8-4.16,7.24-6.1,10.94a17.85,17.85,0,0,0-1.49,4.9,2.09,2.09,0,0,0,.84,1.8c.42.21,1.4-.22,1.84-.66,1.4-1.42,2.69-3,4-4.5a11.92,11.92,0,0,1,9.28-4.38c2.8-.12,5.58-.69,8.38-1,1.32-.16,2.65-.22,4-.32l.64.7a21.8,21.8,0,0,1-2.54,4.07c-4,4.14-8.07,8.14-12.16,12.14a13.66,13.66,0,0,1-2.22,1.49l.53.85c2.77,0,5.54,0,8.31,0a9,9,0,0,1,3.74.47,3.78,3.78,0,0,1,1.92,2.65c0,.7-1.22,1.9-2.12,2.16-4,1.17-8.09,2-12.11,3.13a34.42,34.42,0,0,0-15.52,9.25,105.68,105.68,0,0,0-7.16,8.72c-.3.37-.27,1-.6,2.33,6-4.22,11.78-7,19-6.61a21,21,0,0,1-1.35,2.07q-6.19,7.22-12.44,14.4c-3.29,3.79-4.67,11.75-2.72,16,3.46-5.69,7.48-10.86,13-14.64,4-2.73,8.39-4.36,13.35-3.42a9.76,9.76,0,0,1,3.26,1.29c2.54,1.54,2.77,2.94,1,5.32-1.43,1.89-3.17,3.57-4.34,5.6a47,47,0,0,0-4.47,9.26c-1.63,5.24-2.71,10.67-4,16-.63,2.63,0,3.58,2.65,3a30.61,30.61,0,0,0,6.39-2.81c1.7-.83,3.24-2.08,5-2.63,2.22-.68,3.68.52,3.45,2.82a16.44,16.44,0,0,1-1.59,5.41c-2.42,5-2.4,10.28-1.79,15.76a28.64,28.64,0,0,1,1.81-3.2c2.85-3.83,5.6-7.76,8.76-11.32,1-1.1,3.5-2,4.69-1.46s1.94,2.78,2.31,4.4c.49,2.17.42,4.45,1.21,6.88.43-.71.91-1.39,1.27-2.13,1.9-3.88,3.73-7.8,5.69-11.65a22.12,22.12,0,0,1,2.67-4.09,3.88,3.88,0,0,1,4.93-1.08c.91.4,1.84.78,2.73,1.24,2.17,1.14,3.8.7,4.87-1.56.08-.17.15-.33.24-.49,3.15-5.55,3.19-5.6,8.05-1.61,1.61,1.31,2.86,1.24,4.26-.17a14,14,0,0,1,11.84-4.31c1.61.15,3.33.33,4.18-1.67a4.13,4.13,0,0,0-1.14-5.2c-3.53-2.7-7.19-5.22-10.9-7.66-3.94-2.58-8.24-4.66-11.94-7.53a99,99,0,0,1-11.33-10.53,34.09,34.09,0,0,1-8.26-14.57c-1-3.71-2.4-7.2-5.76-9.53a8,8,0,0,1-1.92-1.93c-.7-1-1.23-2.12-1.83-3.19a18.28,18.28,0,0,1,3.46-1c6.1-.54,10.67-3.73,13.88-8.61a14.41,14.41,0,0,1,10.69-7c2.39-.35,4.85-2,6.74-3.66,3.2-2.81,5.73-3.4,9.2-.93,1.81,1.28,2.78.43,3.37-1.06,1.44-3.63,2.66-7.34,4-11,1.08-2.88,2.13-5.8,3.47-8.57.4-.84,1.71-1.24,2.61-1.85a10.44,10.44,0,0,1,1.64,2.72,20.83,20.83,0,0,1,.43,4.61c.07,3.82,0,7.64.09,11.46.1,6.13.12,6.12,5.88,4.69,1.14-.28,2.31-.5,3.46-.76,2.34-.54,3.79.13,3.69,2.79-.07,2,1.11,2.75,2.88,2.85,3.09.17,6.18.33,9.27.44a24.16,24.16,0,0,1,15.05,5.55c.69.58,1.47,1.06,2.22,1.58,2.19,1.5,4.36,2.1,6.78.31a12.35,12.35,0,0,1,3.18-1.22c.85,2.67-.13,5.77-2.73,6.77-4.82,1.84-5.77,5-5,9.76,1.89,11.36-3.59,19.32-12.46,25.59a70.09,70.09,0,0,0-5.8,5,73.49,73.49,0,0,1-17.17,10.94,6.86,6.86,0,0,0-1.86,10.83,3.4,3.4,0,0,0,2.67.71,8.5,8.5,0,0,1,7.66,2.59c1.52,1.43,3,2.95,4.55,4.32,1.74,1.51,3.68,1.72,5.35,0,3-3.15,6.14-2.77,9.6-.84,3.17,1.77,6.45,3.37,9.74,4.91,2.18,1,4.35,1.91,6-1.19.37-.7,2.58-1.13,3.48-.71a33.66,33.66,0,0,1,6.1,4c2.65,2,5.19,4.23,7.76,6.38,3.32,2.77,7.16,3.39,11.29,2.71a7.08,7.08,0,0,0,1.86-.9,7.76,7.76,0,0,0-1.13-2c-1.06-1-2.43-1.67-3.38-2.73-.65-.72-1.31-2-1.07-2.79a3.17,3.17,0,0,1,2.43-1.77c3,.09,5.9.57,8.85.91l3.89.48a27,27,0,0,0-.05-4.22c-.5-2.86-1.37-5.65-1.76-8.52-.15-1.08.6-2.29.94-3.44a14.87,14.87,0,0,1,3.09,1.37c1.88,1.41,3.56,3.08,5.41,4.54.5.39,1.31.37,2.54.68-4.6-5.77-3.95-12.35-5-18.48-1.3-7.38-4.29-13.83-9.81-19a14.76,14.76,0,0,1-2.06-3.34,22.84,22.84,0,0,1,4-1.28c6.3-.84,11.29,1.72,14.82,6.72a55.74,55.74,0,0,1,6.11,11.16c1.64,4.07,4,6.94,8.11,8.58,2.9,1.16,5.64,2.69,8.45,4.06l.84-.68c-2.26-4.8-4.37-9.68-6.83-14.37-1.75-3.34-4.13-6.35-6-9.64-3-5.41-4.16-11.41-5-17.46-1-7.3-4.53-13.26-9.57-18.51-1.42-1.48-3.5-3.54-2-5.69s4.12-1,5.84.27c3.74,2.72,7.28,5.73,10.88,8.63.9.72,1.75,1.5,2.82,2.43-.21-3.39-.6-6.39-.5-9.38,0-1.45.69-3.63,1.68-4.07s3.19.37,4.23,1.32c3.34,3.07,6.43,6.42,9.55,9.72a13.83,13.83,0,0,1,1.52,2.52l1.15-.85c-.38-1.26-.8-2.51-1.12-3.79-.82-3.26-1.46-6.57-2.42-9.78-2.31-7.76-7.35-13.07-14.62-16.66-5.75-2.84-11.2-6.3-16.72-9.6a4.21,4.21,0,0,1-1.64-2.32c-.52-1.74.21-3.07,2.16-2.7a39.48,39.48,0,0,1,6.48,1.94c4.33,1.58,8.6,3.34,12.94,4.89,2,.72,3.44.28,3.89-2.26.47-2.7,2.28-3.34,4.62-1.88,1.15.72,2.1,1.78,3.28,2.42.66.37,2,.56,2.32.2a3.07,3.07,0,0,0,.48-2.56c-1-2.88-2.5-5.62-3.44-8.53-.41-1.29.07-2.87.14-4.31,1.54.09,3.46-.36,4.53.39a34.62,34.62,0,0,1,6.07,5.79c2.07,2.4,3.79,5.11,5.81,7.57a19.24,19.24,0,0,0,3,2.46l.82-.46c-.13-1.46.09-3.06-.45-4.35a65,65,0,0,0-5-10.22,49.83,49.83,0,0,1-7.49-17.41c-.19-.93-.24-1.88-.42-3.36,2.87,1.92,5.08,3.89,7.66,5.06,10.31,4.69,17.38,12.33,22.54,22.35,3.86,7.5,4.48,15.13,3.56,23.18-.25,2.2-1.52,2.78-3.59,2.68-5.5-.27-7.25,1.6-6.14,7.13,2,10,7.67,17.64,16.5,22.82,1.43.84,3.53,1.54,2.8,3.37-.55,1.37-2.64,3.16-3.85,3-3.71-.4-7.67-1-10.87-2.74-3.41-1.86-6.05-5.11-9-7.76-.9-.8-1.8-1.62-2.7-2.44L390,305c1,2.59,2.1,5.13,2.92,7.77.48,1.55,1.1,4.36.57,4.66-1.55.87-3.64.89-5.53,1-.83,0-1.67-.65-2.55-.84-1.06-.22-2.16-.26-3.24-.38,0,1.12-.33,2.41.09,3.34a51.07,51.07,0,0,0,4.87,9.12,18,18,0,0,1,2.91,16.47,42.77,42.77,0,0,1-4.2,9.22,6,6,0,0,1-3.43,2.31,2.88,2.88,0,0,0-2.49,3c-.19,6.77,3,12,7.6,16.55,2.42,2.4,4.63,5,7.31,7.92-5.16,2.69-10,3.65-14.82,2.49-4.62-1.11-9-3.25-14.18-5.21,0,2.28.07,4.46,0,6.65-.07,1.66-.36,3.32-.55,5-1.49-.88-3.05-1.66-4.44-2.67-2.93-2.11-5.6-4.63-8.68-6.46-3.59-2.12-5.31-.92-5.43,3.35-.08,2.82,0,5.64-.06,8.46a25.52,25.52,0,0,1-.4,3.79c-.94,5.33-2.15,6.09-7.81,4.54a34.82,34.82,0,0,0-.16,3.61c.21,3.44.72,6.88.71,10.32,0,1.62-.93,3.24-1.44,4.86l-.86-.1c-.61-.94-1.24-1.88-1.83-2.83-1.82-2.93-3.5-6-5.46-8.78-6-8.6-14.65-13-24.54-15.48-2.79-.69-5.19-.72-6.51,2.55-.74,1.85-2.37,2-3.83.89-1.87-1.43-3.52-3.15-5.33-4.66-2.71-2.26-5.38-4.57-8.23-6.63a14.38,14.38,0,0,0-12-2.21,8.91,8.91,0,0,0-4.13,2.32c-2,2-4.1,2.56-6.39,1.22a57.06,57.06,0,0,1-7.05-5.06c-3-2.46-3.66-2.56-6.27.13-1.66,1.7-3.56,2.05-4.91.19-4.21-5.78-9-3.88-14-1.5a32.55,32.55,0,0,0-4,2.36c-4.27,2.82-8.51,2.69-12.77-.19a3.27,3.27,0,0,0-2.92.06A32,32,0,0,0,202,390c-2.79,2.6-5.54,5.2-9.58,5.74a1.75,1.75,0,0,0-1.17,1.26c-.08,5.58-.06,11.17-.06,17.24,1-.49,1.67-.74,2.24-1.07,3.46-2,6.33-.61,6.89,3.39.31,2.24.27,4.55.74,6.76a23.72,23.72,0,0,0,1.9,4.46l.94-.12c.39-.85.84-1.67,1.17-2.54a10.68,10.68,0,0,1,.82-2.58,40.32,40.32,0,0,1,3.2-3.49c.85,1.11,2,2.1,2.47,3.34a15.21,15.21,0,0,0,7.1,8.43,6.65,6.65,0,0,1,.71-2.16c.74-.87,1.69-2.14,2.58-2.17a4.45,4.45,0,0,1,3.47,1.6,38.57,38.57,0,0,0,10,11.36c1.11.88,2,.79,2.67-.44.92-1.66,1.77-3.37,2.68-5.05a32.91,32.91,0,0,1,2.28-4c1.49-2,2.95-2.1,4.83-.48,1,.88,2,1.78,3,2.68,2.61,2.32,4.48,2.3,6.63-.55,1.67-2.22,3.3-2.32,5.61-1.18,3.94,1.95,6.31.85,7.05-3.52a57.91,57.91,0,0,0,.45-9.23c0-1.71-.5-3.44-.43-5.15s.07-4.46.95-4.86c2.26-1,3.36,1.48,4.48,3,1.61,2.18,2.8,4.7,4.53,6.78.87,1,2.53,1.43,3.84,2.11a15.37,15.37,0,0,1,1.68-3.34,10.7,10.7,0,0,1,3.69-3.2c2.59-1.06,5.19-1.48,4.32-5.48-.22-1,1.62-3.13,2.92-3.57.85-.29,2.67,1.29,3.6,2.42,1.23,1.48,1.85,3.46,3,5s2.56,1.71,3.72-.16c1.45-2.32,3.05-4.67,6.26-3.44s2.7,4.21,2.3,6.6a91,91,0,0,1-3,13c-1.67,5.19-6.13,7.49-11,8.92-6.28,1.86-12,4.42-15.11,10.64a37.63,37.63,0,0,0-2.78,7.6c-.32,1.28.18,2.81.49,4.19.41,1.85,1.12,3.65,1.45,5.51.57,3.13-.66,4-3.7,2.82-4.25-1.61-6.23-5.09-7.63-9.06-1.11-3.15-2.14-6.32-3.37-10-2.62,2.54-2.77,5.42-3.4,8.17a117.55,117.55,0,0,1-3.21,12.3c-1.14,3.34-3.05,3.6-5.79,1.27-.75-.64-1.24-1.6-2-2.2a35.09,35.09,0,0,0-3.82-2.41c-1.84-1.06-3.72-2.07-5.59-3.07-.77-.4-1.88-1.24-2.29-1a3.06,3.06,0,0,0-1.37,2.38,73.09,73.09,0,0,0,2.17,11.93c.86,2.77,2.85,5.19,4.29,7.79a14.08,14.08,0,0,1,.65,2.39c-2-.49-3.66-.49-4.78-1.29a78.67,78.67,0,0,1-7-6c-3.22-2.9-6.39-5.88-9.58-8.81-1.14-1.05-2.21-1.71-3.77-.43-.77.62-2.07.55-3.11.87a6.55,6.55,0,0,0-2,.83c-.91.64-2.19,2.22-2.46,2.05a11.86,11.86,0,0,1-3.67-3.41c-1.36-2.13-2.24-4.55-3.42-6.8-.93-1.76-1.71-3.77-3.12-5-1.08-1-3.5-1.81-4.51-1.25-3.08,1.71-4.67-.33-5.78-2.12a29.67,29.67,0,0,1-3.34-8.25c-.88-3.52-3.16-4.83-6.35-3-1.37.81-2.59,1.87-4.19,3a23.42,23.42,0,0,1-1-2.83c-1.91-10.1-8.51-10.86-16.23-8.64-1.31.37-2.55.94-3.84,1.38-2.89,1-4.34.24-4.32-2.82,0-3.43.73-6.85,1.09-10.28.15-1.39.18-2.8.31-4.82-6.31,4.72-8.31,12.7-15.65,16.08-.41-3.42,1.41-5.65,2.39-8.15A84.07,84.07,0,0,0,149.85,415c.56-2.38-.83-3.18-3-2a33.39,33.39,0,0,0-3.4,2.61,15.47,15.47,0,0,1-3.38,2.21c-2.32.9-3.86-.2-3.61-2.69.5-5,1.44-9.89,1.87-14.87a15.22,15.22,0,0,0-4.15-11.73c-.62.58-1.11.82-1.24,1.19-2,5.59-5,10.92-4.53,17.12.1,1.28.92,2.49,1.17,3.78a59.89,59.89,0,0,1,1.43,9.06c.09,2.56-1.61,3.23-3.55,1.46-2.82-2.56-5.37-5.42-8.1-8.09a42.47,42.47,0,0,0-3.39-2.72l-.83.66c1,2.36,2,4.72,3.06,7.07,1.34,3,.93,4.08-2.24,5a18.65,18.65,0,0,1-11.53-.6c-3-1-3.81-.45-3.38,2.71a2.35,2.35,0,0,0,.24,1.05c2.72,3.38.7,6.44-.51,9.63a37.22,37.22,0,0,0-2.34,7.78c-.51,3.45,1.07,4.64,4.44,4.16a23.3,23.3,0,0,1,4.08.14c-.48,1.39-.63,3.07-1.51,4.13-3.46,4.18-7.2,8.13-10.76,12.24-3.23,3.73-6.17,7.67-7,12.73-.66,4,1.31,6.41,5.43,6.17,6.62-.38,12.07-2.91,15.59-8.93a11.23,11.23,0,0,1,3.94-3.87c2.26-1.3,4-.32,4.75,2.16,1.29,4.38-2,14-5.78,16.79-2.16,1.59-2.44,3.05-.47,4.59,6,4.69,8,11,7.86,18.26H104.29a14.34,14.34,0,0,0-1.38-3.11c-3.24-4.33-10.46-6-15.77-3.69-2.91,1.28-5,3.25-4.69,6.8h-47c.9-2.65,2.95-4,5.46-4.89,4-1.36,8.1-2.66,12.14-4,1.15-.39,2.26-.93,3.71-1.54-1.38-2.07-2.64-3.74-3.66-5.53a128.65,128.65,0,0,1-6.79-12.67,19,19,0,0,1-1-8c.12-2.62,2.06-3.37,4.21-1.84,1.92,1.37,3.51,3.21,5.47,4.49a53.11,53.11,0,0,0,9.16,5.1c3.26,1.28,5.17-.71,4.33-4.11-.58-2.38-1.57-4.65-2.17-7-.86-3.38-1-6.84,1.74-9.46,3.92-3.72,7.52-7.48,9.3-12.84.88-2.63,1.55-4.77-.14-7.24-1.48-2.17-2.78-4.48-4-6.78-1.48-2.71-.45-4.59,2.62-4.44a47.92,47.92,0,0,1,7.47,1.32c5.29,1.12,8.48-.74,10.41-5.8a14.26,14.26,0,0,1,3-4.67c1.22-1.28,1.32-2.4.31-3.56-1.9-2.18-4-4.2-5.92-6.32a17.54,17.54,0,0,0-10.58-5.69c-9.09-1.36-14.6-6.7-17-15.51a11.28,11.28,0,0,0-2-4.68c-1.18-1.27-3.1-2.54-4.69-2.54-1.24,0-2.68,1.8-3.66,3.08a9.06,9.06,0,0,0-1.26,3.57c-.55,2.57-1,5.18-1.44,7.77-.5,2.74-1.72,3.31-3.85,1.46a16.65,16.65,0,0,1-4.38-5c-4.37-9.27-3.45-18.41,1-27.46a24.6,24.6,0,0,0,2.39-14.59c-.57.37-.86.57-1.17.75-3,1.7-5.88,3.52-9,5a3.44,3.44,0,0,1-3.19-.6c-.56-.62-.5-2.28-.09-3.19a65.51,65.51,0,0,1,4-7.42c4.65-7.59,2.73-15.2-.52-22.4-1.2-2.68-2.42-5.12-2.63-8.07a35.94,35.94,0,0,0-1-4.76l-1-.13a28.85,28.85,0,0,0-2.62,4.24c-2.11,5.18-4.24,10.35-4.42,16.09a16.64,16.64,0,0,1-1.07,5c-1.26,3.5-3.76,4-5.65.89a40.49,40.49,0,0,1-4.67-10.61c-2-7.7-1.25-15.54.16-23.28.45-2.49-.42-3.86-2.74-4.47-1.4-.37-2.81-.72-4.24-1a8,8,0,0,1-5.87-4Zm208.16,45.32-.34.76c4.29,2.81,8.48,5.78,12.9,8.35,2.28,1.32,4,.32,4.77-2.26a24.51,24.51,0,0,0,.58-3.21c.57-3.22,1.05-6.45,1.77-9.63.19-.84,1.11-1.52,1.7-2.28a10.15,10.15,0,0,1,1.68,2.19c1.1,2.74,1.93,5.6,3.08,8.32a21.54,21.54,0,0,0,2.83,4.93c2,2.59,3.47,2.81,6.39,1.32a68,68,0,0,0,6.91-3.8c2.8-1.87,5.65-3.8,7.63-7.28-1.5-.15-2.46-.31-3.42-.34-3.27-.13-6.55-.15-9.82-.32-3.1-.16-4.1-1.22-4.61-4.29a7.18,7.18,0,0,1,2.66-7.29,25.92,25.92,0,0,1,5.48-3.51c6-2.66,7.29-1.9,8.5,4.39.57,2.95,2.31,3.77,4.92,2.14a12.72,12.72,0,0,0,5.76-8.82c1.25-7-3.44-12.33-10.53-12.2-5,.1-10,.92-15,.78-8.89-.23-17.77-.83-26.65-1.48-13.31-1-20.1,9.72-18.26,21,.35,2.16,2.3,3.46,4.8,3.4,2.28,0,2.84-1.57,3.05-3.44.06-.54.12-1.08.21-1.62.51-3,2.57-4.47,5.5-3.56a22.55,22.55,0,0,1,5.63,2.62c2.71,1.78,5.27,4,4.69,7.69s-3.62,4.94-6.85,5.76C212.14,335.74,210.15,336.33,208.16,336.88Z"/><path d="M263.72,0c.76,1.55,1.88,3,2.21,4.67.8,3.86,2.59,5.46,6.56,5.09,1.89-.18,3.77-.61,5.66-.81,4-.43,5.8,1.08,6.19,5,.43,4.25,1.09,5,5.11,6.3,12,3.76,24.09,7.47,36.1,11.34a19.44,19.44,0,0,0,12.54-.34,57.77,57.77,0,0,1,22.63-2.34c3.42.24,4.71,1.84,4.72,4.79,0,2.48-1.24,3.4-3.55,3.39-3.74,0-6.9,1.19-9.23,4.88,1.19.13,2.19.2,3.19.35,2.82.43,5.63.93,8.46,1.31,5.65.76,11.31,1.37,16.94,2.23a45.81,45.81,0,0,1,6.08,1.78c.17.06.41.13.47.26C391.12,54.83,398.63,55,404.33,58c6.26,3.28,11.73,7.27,15.35,13.43a12,12,0,0,1,1.08,10.74c-.91,2.41-.74,4.34,2,5.58A19.87,19.87,0,0,1,427,90.65a7.31,7.31,0,0,1,2.33,2.61,66.36,66.36,0,0,1,3.78,11.13c.7,3.54,2.09,6.53,4.86,8.53,3.18,2.3,4,5.34,3.66,8.78-.74,7.11,2.78,12,7.93,16.08,4.62,3.64,9.64,5.06,15.05,1.45a4,4,0,0,1,1.22-.6c1.07-.24,2.16-.39,3.25-.58-.23,1.25-.13,2.7-.74,3.71a44.09,44.09,0,0,1-3.77,4.84c.94,2.79,1.86,5.38,2.67,8,.66,2.17,1.42,4,4,4.59,1.17.28,2.22,1.48,3.11,2.45,2.52,2.72,5.29,2.54,7.46-.45a13.7,13.7,0,0,1,2.46-2.13c.58,1.06,1.67,2.13,1.65,3.18-.07,4-.46,7.93-.83,11.88-.14,1.54-.88,3.08-.71,4.55a6.82,6.82,0,0,0,1.84,4.17c2.11,1.78,2.59,3.65,1.51,6-3.11,6.81.06,12.35,3.31,18.05,2.46,4.33,4.45,8.94,6.48,13.5.88,2,1.84,2.82,4.24,2.58,3.44-.33,7.06-1.23,10.34.88V226c-2,3.5-5.17,5.79-8.62,7.61-1.81.95-2.08,2-1.36,3.71,2,4.66,4.07,9.31,5.91,14,2.12,5.43,1.75,10.93.05,16.41a11.25,11.25,0,0,1-1.07,3.05c-.82,1.21-1.89,2.92-3,3s-2.59-1.3-3.49-2.39a20.52,20.52,0,0,1-2.09-4.1c-2-4-3.72-8.1-6-11.89-1.4-2.3-3.64-4.09-5.5-6.1l-.77.37a33.19,33.19,0,0,0,0,4.68,16,16,0,0,1-1.17,9.25c-1.25,2.81-1.56,6.14-1.81,9.28-.57,7-1.48,13.77-5.63,19.66a18.36,18.36,0,0,1-3.08,3.44c-2.19,1.84-4,1.22-4.44-1.61-.46-3.13-.52-6.32-.79-10-4.16,4.37-9.58,7.52-9.5,14.46,0,1.82,0,3.64,0,5.46.08,7.35,4.49,11.71,10.32,15.21,1.07.65,2.44,2.18,2.31,3.09-.21,1.35-1.48,3.36-2.59,3.57a23,23,0,0,1-7.72-.15c-2.49-.39-4.87-1.47-7.34-2a5,5,0,0,0-3.4.13c-3.55,2.27-7,4.84-7.09,9.64-.11,5.09,0,10.19-.07,15.28,0,2.63-.11,5.27-.19,7.9-.06,1.94-.7,3.08-3,3.41-3.05.44-4.1,3.94-2.25,6.58a47.56,47.56,0,0,1,3.12,4.41c1.4,2.55,0,4.76-2.89,4.31a11,11,0,0,1-4.88-2.14c-2.7-2.14-5.06-4.7-7.68-6.95a42.22,42.22,0,0,0-5.44-4c-2-1.2-3.53-.28-3.91,1.74-.45,2.35-1.09,5.11-.3,7.16,1.3,3.35,3.56,6.36,5.66,9.34s4.46,5.5,6.55,8.35c1.26,1.71.5,3.11-1.48,3.28a32.39,32.39,0,0,1-7.56-.12,28,28,0,0,1-16.08-8c-4.3-4.38-5.36-10.12-4.57-16A43.19,43.19,0,0,1,402.44,357c2.73-6.19,8.34-9.18,14.63-10.49,2.82-.58,3.24-1.7,2.72-4-.7-3.1.42-5.28,2.92-7.25,3.94-3.1,6.43-7,6.05-12.43-.29-4-.06-8-.06-12.11,1.56-.21,2.81-.45,4.06-.55,4.82-.36,8.58-3,8.93-8.16.4-5.87.3-11.79.34-17.68,0-1.91-.19-3.82-.31-5.72-.16-2.56.35-4.45,3.18-5.58,1.27-.51,2.28-2.51,2.73-4,.84-2.86,1.13-5.88,1.74-8.81.26-1.22.75-2.38,1.35-4.2l9,9,.95-.47A41.78,41.78,0,0,0,459,258c-2.66-6.36-.78-12.12,2-17.77a19,19,0,0,1,2.39-3.1l.81.15c.27,1.05.61,2.1.81,3.16a11.81,11.81,0,0,0,6.53,8.56c.85.44,2.06.2,3.11.28a11,11,0,0,0-.12-3c-1.53-4.69-3.32-9.31-4.74-14a16.81,16.81,0,0,1-.42-5.67c.06-1.13.76-2.23,1.33-3.77,6.68,7.95,10.9,17.74,21.6,20.14l.91-.84c-.81-1-1.55-2.18-2.46-3.15-2-2.18-4.32-4.15-6.23-6.44a15.53,15.53,0,0,1-3.35-13.31,14.18,14.18,0,0,0-1.44-9.77c-3.23-5.91-5.5-12.06-5.32-18.93.05-2-1-3.13-3-3.56a10.63,10.63,0,0,1-3-1.24c-3.76-2.2-4.05-3.05-1.95-6.92,1.08-2,1-3.42-.76-5a20.07,20.07,0,0,1-6.93-14.06,6,6,0,0,0-3.39-5.47,27.19,27.19,0,0,1-3.09-2.18c4.51-.6,8.38-1.56,11.56-5.2a25,25,0,0,0-14.42-.18c-1.3.35-1.49,1.52-.59,2.61.61.75,1.31,1.42,2.34,2.53a26.12,26.12,0,0,1-3.37-.8c-5-2-9.52-4.57-13-8.66-1.36-1.61-2.06-3.76-3.08-5.66s-2.19-3.74-3.1-5.69c-1.09-2.34-2.69-4.74-2.83-7.18-.46-7.85-3.83-14-9.59-19.11a12.53,12.53,0,0,1-4.68-8.6c-.33-3.89-2.95-6.12-6.44-7.34-2.17-.75-4.14-1.7-4.47-4.2-.35-2.73,1.72-4.19,3.43-5.84,1.16-1.12,3.21-2.84,2.94-3.62A8.18,8.18,0,0,0,403.32,71c-3.09-1.58-6.36-1.52-9.08,1.13-1.91,1.85-3,1-4.2-.91-4-6.65-9.1-11.55-17.4-12.37-2.36-.24-4.62-1.94-6.85-3.11s-4.46-2.82-6.86-3.83c-2.82-1.2-5.48-.49-7.73,1.69-3.7,3.56-6.61,2.86-8.34-1.93A25.14,25.14,0,0,0,341,47.13c-2.36-3.93-6-4.27-8.91-.77-1.93,2.29-3.53,4.85-5.32,7.25-1.62,2.16-3.45,4-6.39,4.2s-4-.87-3.33-3.7c.43-1.9,1.42-3.66,2-5.54a5.08,5.08,0,0,0,.29-3.11,44.19,44.19,0,0,0-3.78-7.13c-1.5-2.28-3.38-3.42-6.49-2.08-1.53.66-4,.15-5.65-.7a37.93,37.93,0,0,0-19.21-4c-2.91.07-5.59.53-7.8,2.6A3.63,3.63,0,0,1,275,35c-1.15.31-2.55.94-3.46.54-.63-.27-.84-2-.84-3.13a52.77,52.77,0,0,1,.53-5.63,7.51,7.51,0,0,0-2,0c-3.51,1.19-5.88-.27-8-3-3-4-4-3.93-7.32-.23-2.64,2.92-5.32,5.62-9.61,6.08-.94.1-2,1.6-2.53,2.67-2.68,5-5.16,10.21-7.82,15.27a85.49,85.49,0,0,1-4.64,7.9c-.56.82-1.83,1.16-2.77,1.72-.31-1-1-2.05-.86-3A113.38,113.38,0,0,1,228,41.94c1.51-5.66,3.4-11.22,5.15-16.82,1.08-3.43.82-3.91-2.76-4.88a4.55,4.55,0,0,1-1.24-.53C226.71,18.06,226,13,227.72,9.65,229,7.13,231.93,6.07,235,7a10.37,10.37,0,0,1,1.76.73c5.23,2.81,9.69,2.07,13.88-2.32,2.12-2.21,5-3.66,7.61-5.45Z"/><path d="M389.84,512.15c-.83-3,1.47-3.13,3.3-3.26a21.54,21.54,0,0,0,11.22-3.72A11.07,11.07,0,0,0,409.3,496c.1-3.34-1.86-5.37-5.21-5.86-1.35-.2-2.72-.21-4.07-.43-3.27-.55-4.52-2.42-3.82-5.62,1.38-6.35,1.38-6.34-4.81-8.79a33.71,33.71,0,0,1-5.22-2.26c-3.56-2.18-3.77-4.88-.78-7.77,1.11-1.07,2.35-2,3.52-3-4.48-2.11-8.92-3.64-12.72-6.13-7.18-4.73-9.5-10.95-7.15-18.7.51-1.67,2-3.15,3.23-4.49s2.36-.58,3.14.67c1.36,2.16,2.62,4.37,3.94,6.54,1.6,2.61,3.31,5.11,6.91,4.91,4.07-.22,6.4-3.12,8.75-5.88.25-.28-.42-1.78-1-2.28-2.5-2.07-5.46-3.68-7.68-6-6.44-6.75-9.39-15-9.46-24.29,0-2.12-.14-5,2.43-5.54s3.55,2.05,4.56,3.93c3.69,6.93,6.79,8.3,14.36,6.1,2.87-.84,5.74-1,7.86,1.3a8.76,8.76,0,0,1,1.66,9c-.43,1.31-1.87,2.34-2.95,3.39-.63.61-1.56.93-2.18,1.55-2.11,2.12-1.56,4.46,1.36,5a33.21,33.21,0,0,0,7.59.42c2.66-.13,3.77.88,4,3.5.51,5.18.37,10.31-2.34,14.82-1.54,2.57-4,4.55-6,6.88a22,22,0,0,0-1.86,3.11,14.18,14.18,0,0,0,3.58,1.26c1.79.15,3.64-.39,5.42-.2,2.79.31,3.71,2.17,2.45,4.7a27.35,27.35,0,0,1-2.12,3.17c-1.79,2.63-1.32,4,1.77,5a32.79,32.79,0,0,0,3.71.87c2.22.44,3.29,1.69,3,4-.22,1.62-.35,3.26-.6,4.87a3.37,3.37,0,0,0,2.11,4c1.56.73,3.18,1.34,4.73,2.1,6.13,3,11.55,6.84,14.69,13.17,1.45,2.92,2.24,5.95.93,9.17Z"/><path d="M170.36,167c-2.51,1.59-5.14,3-7.51,4.81-5.57,4.17-11.87,6.07-18.7,6.8a35.71,35.71,0,0,0-16.67,6.24c-6,4.17-9.23,10.36-11.18,17.28a26.43,26.43,0,0,1-1.54,4.35c-.31.64-1.25,1.54-1.68,1.43-.84-.2-2-.91-2.19-1.63a60.1,60.1,0,0,1-1.62-8.52,72.21,72.21,0,0,1,0-7.41c-5.63,3.22-10.18,8-17.4,6.73A29.47,29.47,0,0,1,95,193.62c4.72-3.77,5.69-6.64,4-12.35-.81-2.69-1.64-5.39-2.36-8.1A24.57,24.57,0,0,1,99,154a30.82,30.82,0,0,0,1.9-5.48c-2,.36-4.11.32-5.82,1.16a54.08,54.08,0,0,0-7.21,4.8c-1.08.78-2,1.72-3.3,2.81a10.22,10.22,0,0,1,1.66-8.82c2.92-4.13,6.24-8,9.21-12.07a48.83,48.83,0,0,0,5.4-8.79c.6-1.37,0-3.63-.76-5.16-1.53-3.14-.81-5.58,1.45-7.88a20.32,20.32,0,0,1,10.74-6c3.46-.68,6.8-2,10.24-2.77a28.28,28.28,0,0,1,4.72-.35l.56,1c-1.32,1.17-2.7,2.28-3.94,3.53-2.65,2.68-5.51,5.22-7.71,8.23-1.22,1.66-1.28,4.17-1.86,6.3l.75.35a8.16,8.16,0,0,0,1.3-1.09c5-6.32,12-5.49,18.83-4.93,1.93.15,2.13,1.63,1,2.93-2.14,2.33-4.53,4.42-6.66,6.76-2.5,2.73-4.87,5.57-7.17,8.46-.48.6-.43,1.62-.78,3.12,3.56-1.58,6.47-3,9.45-4.16,4.85-1.93,9.88-2.58,14.93-1,1.24.38,3.11,1.92,3,2.7a5.38,5.38,0,0,1-2.77,3.35c-2.66,1.33-5.62,2.05-8.35,3.27-6.52,2.91-11.71,7.28-14.2,14.19a13,13,0,0,0-.74,5.58,4.16,4.16,0,0,0,2.29,2.89c4.59,1.68,9.25,3.22,14,4.44a18.49,18.49,0,0,0,7.18.36c1.14-.18,2.47-1.79,2.85-3,.2-.63-1.45-1.88-2.32-2.81s-1.57-1.54-2.37-2.3a14.22,14.22,0,0,1,2.65-1.65c8.92-3.21,18-5.25,27.5-3,13.16,3.18,19.46,11.19,19.69,24.75.07,4.6,1.17,8.66,4.51,12.1a12.88,12.88,0,0,1,2.72,5.27c.34,1.18,0,3.61-.53,3.79-1.54.49-3.94.8-5-.06-9.72-7.86-20.95-8.15-32.25-6-5,1-9.53,4.28-14.29,6.47a31.57,31.57,0,0,1-5.26,2.11c-2.31.58-3.77-.55-3.83-2.95-.19-7.6-2.55-6-6.9-3.37a52.42,52.42,0,0,1-6.8,3.37c-.72.31-2.11.28-2.47-.17a2.87,2.87,0,0,1-.31-2.66c1.59-2.39,3.15-5,5.3-6.78,3.45-2.92,7.37-5.27,11.05-7.92,1-.74,2.29-1.51,2.76-2.57,1.24-2.79,3.06-1.87,4.94-1.15a4.27,4.27,0,0,1,.71.42c5.35,3.41,6.92,3,10.3-2.51.5-.83.94-1.69,1.69-3,1.67,2.3,3.2,4.25,4.56,6.3,5.51,8.29,17.84,6,20.76-.64-5.6,4-10.67,4.14-14.91-.94S167.69,172.54,170.36,167Zm8.16,5.7c-.9,1.55-2,2.57-1.8,3.29.24,1,1.43,1.7,2.21,2.53.9-.86,2.44-1.68,2.5-2.6S179.92,174.13,178.52,172.67Z"/><path d="M101.84,76.76c-4.12-5.64-11.5-4.28-16.08-9.46,3.15-1.19,5.81-2.67,8.63-3.18,6.77-1.22,13.63-1.91,20.43-3a14.76,14.76,0,0,0,4.77-1.82c3.9-2.18,7.71-3.82,12.37-2,2.54,1,5.18-.11,6.93-2.13a26,26,0,0,0,4.66-6.94c1.61-4,2.47-8.23,3.84-12.3a3.64,3.64,0,0,1,2.23-2,10.32,10.32,0,0,1,3.49.32c3.94.49,6.65-.6,7.75-4.37a56,56,0,0,0,1.76-12.27c.24-3.67.88-4.58,4.57-3.93a41.54,41.54,0,0,1,7.07,2,9.46,9.46,0,0,0,9.47-1.51,17.58,17.58,0,0,1,3.1-2.21,14,14,0,0,1,5.23-1.49c2.3,0,3-.66,2.57-2.83s-.55-4.09-.83-6.34c7.72.5,15.09,1.35,21.84,4.81A11.69,11.69,0,0,1,221.52,14a3.79,3.79,0,0,1-1.29,3.18,3.85,3.85,0,0,1-3.41.37,87.52,87.52,0,0,1-7.48-4.7c-1,4.19-.94,8.29,1.35,12.15,1.51,2.56,3.44,4.91,4.65,7.6.71,1.56,1.14,4.09.34,5.28-1.07,1.6-3.64,1.85-5.41.42-2.58-2.11-4.92-4.51-7.37-6.78-3.1-2.88-6-6-9.35-8.57-2.61-2-4.05-1.47-5.77,1.38-1.22,2-2.26,4.15-3.29,6.27-1.59,3.28-4.26,4.78-7.75,4.22-5.45-.88-8.71,1.7-11.87,5.82-3.67,4.77-2.85,9.85-2.52,15,.08,1.24.23,2.47.4,4.3-1.6-.48-2.76-.78-3.88-1.19s-2.15-1-3.25-1.41c-3.23-1.24-4.41-.85-6.5,1.93-2.27,3-4.48,6.11-6.9,9C139.4,71.72,138,71.87,134,70.2c-5.88-2.45-12.13-2-18.29-1.94-2.12,0-3.55,2.32-3,4.69A10.83,10.83,0,0,0,115,77.43c1.3,1.5,1.74,2.93,1,4.71-.82,2-1.58,4.23-4.26,4.41s-5.63.14-8.44.33a48.94,48.94,0,0,0-7.27.88c-1,.21-1.69,1.36-2.52,2.09a11.22,11.22,0,0,0,2.58,1.57c1.2.35,2.57.12,3.76.48s3,1.09,3,1.73c.06,1.24-.59,3.13-1.56,3.68a19.47,19.47,0,0,1-6.35,2c-3.12.55-6.4.36-9.44,1.13-6.11,1.55-10.81,4.94-12.87,11.31a7.24,7.24,0,0,1-2.14,2.52,8.88,8.88,0,0,1-1.67.9c-6.44,3.73-4.86,5.36-1.31,8.63,3.21,3,3.35,5.11.23,8.11a10.22,10.22,0,0,0-3.11,10.37,4.67,4.67,0,0,1-1.63,5A37.66,37.66,0,0,0,56.6,155a10.56,10.56,0,0,0-1.14,5.7c.22,8.21-.06,16.33-2.38,24.31-2.55,8.76-8.77,13.79-16.9,16.73-6.17,2.22-14.08-1-18.37-7.26,2,.2,3.87.34,5.71.57,12.08,1.55,19.13-7.05,18.76-18.46-.07-2.09-.35-4.17-.43-6.26a17.41,17.41,0,0,1,1.73-9.1c1.47-2.89,1.69-6.45,2.25-9.75.4-2.41.44-4.89.69-7.33A17.17,17.17,0,0,1,51.43,134c2.37-2.58,2.26-3.11-.2-5.65l-.19-.19c-5.82-5.94-6.12-8.79-1.23-15.56,4.7-6.52,10-12.42,17.29-16.25a2.86,2.86,0,0,0,1.05-2.2c0-4.57,1.37-6.58,5.77-7.86a18.79,18.79,0,0,1,4.29-.66A17.44,17.44,0,0,0,89,81.74,17.66,17.66,0,0,1,99.2,77.58,14.53,14.53,0,0,0,101.84,76.76Z"/><path d="M294.47,148.06c2.25.22,3.94.51,5.64.52,8.75.09,16,3.86,22.29,9.49a122.74,122.74,0,0,1,10.83,11.16c5.4,6.21,10.56,12.63,15.82,19a17.15,17.15,0,0,0,1.94,2.28c1.37,1.14,2.55.51,2.73-1a14.37,14.37,0,0,0-.45-4.78c-.89-3.76-1.94-7.47-2.93-11.2l.81-.66,21.24,17.74.87-.52c.17-.82.65-1.74.44-2.45-1.18-3.84-2.42-7.69-3.86-11.44-2.12-5.5-4.53-10.9-6.61-16.41-.73-1.92.61-3.12,2.81-2.36a23.36,23.36,0,0,1,6.74,3.4c6.23,4.86,10.52,11.25,13.68,18.43.81,1.86.4,3.46-.28,5.41a45.75,45.75,0,0,0-2.26,11.07c-.46,5.52-.35,11.09-.55,16.63-.07,1.76-.31,3.5-2.55,4a4.08,4.08,0,0,1-4.82-2.17c-1.18-2.14-2.21-4.38-3.47-6.48-1-1.73-2.33-3.32-4-5.71a28.6,28.6,0,0,0-1.09,3.71c-.39,3.15-.62,6.32-1,9.48a7,7,0,0,1-.86,2.84,29.34,29.34,0,0,1-2.68,3.24,28.29,28.29,0,0,1-2.92-2.87,15.07,15.07,0,0,1-1.63-3.14,26.23,26.23,0,0,0-7.26-9.87c-4.44-3.67-7.81-8.6-11.84-12.79a40.53,40.53,0,0,0-6.88-5.64,7.4,7.4,0,0,0-9.36.64c-8.62,7.12-18,8.3-28.28,4a7.57,7.57,0,0,0-3.43-.26,32.51,32.51,0,0,0-3.45.81c-3.84.79-5.25-.53-4.34-4.26a124.89,124.89,0,0,1,3.68-13.29,34.82,34.82,0,0,1,4.73-8.51,11.93,11.93,0,0,1,9.9-4.91,4.29,4.29,0,0,0,1.62-.14,21.78,21.78,0,0,0,2.38-1.47c-.65-.67-1.18-1.65-2-2-3.78-1.5-7.63-1.53-10.78,1.26a74.51,74.51,0,0,0-6.69,7.48c-1.75,2.06-3.25,4.36-5.18,6.23a5.25,5.25,0,0,1-4,1.47c-.89-.19-2-2.14-2-3.31,0-3.68-.07-7.49.86-11A42.4,42.4,0,0,1,288.1,139.4a22,22,0,0,1,14.24-6.08c3.08-.18,4.69.92,5,3.08s-1.31,3.95-4.15,4.46C299.19,141.58,296.48,143.78,294.47,148.06Zm-2.64,37.51a5.83,5.83,0,0,0,1.6-.59c2.13-1.9,4.35-1.89,6.77-.61,1.2.64,2.55.94,3.78,1.51a9,9,0,0,0,8.85-.45,52.41,52.41,0,0,0,5.71-3.68c1-.79,2.42-2.19,2.28-3.09-.18-1.08-1.82-1.93-3-3.06-2,5.29-5.69,8.49-9.89,8.12-5.5-.48-8.43-4.17-9.57-10C294.94,177.32,292.59,180.75,291.83,185.57Zm19.25-11.76c-1.27-.93-2.29-2-2.63-1.85a4.65,4.65,0,0,0-2.07,2.35c-.13.39,1.29,1.89,1.73,1.78C309,175.85,309.76,174.89,311.08,173.81Z"/><path d="M361.88,97.37A57.47,57.47,0,0,0,355,94.64c-4-1-8.09-1.32-12-2.52a26.17,26.17,0,0,1-8.83-4.37,48.92,48.92,0,0,0-16-9.08c-2.42-.79-5.64-1.66-5.64-4.77s3.16-4,5.53-5c7.69-3.36,14.64-1.63,20.65,3.78,7.1,6.4,15.91,8,24.34,1a14.91,14.91,0,0,1,6.86-2.77c2.41-.4,3.87,1.45,3.1,3.79a17.23,17.23,0,0,1-3.13,5.15c-1.63,2-3.54,3.81-5.52,5.9,2.06.12,4,.16,5.95.37,4.79.5,6.72,2.8,7,7.59a4.28,4.28,0,0,0,2.16,2.91c2.43,1.19,5.09,1.93,7.64,2.88,8.77,3.26,16.9,14.55,17,23.86a16.8,16.8,0,0,1-1.08,5.81c-.74,2-2.48,2.56-4.08.94a46,46,0,0,1-4.19-5.32c-2.36-3.23-4.55-6.62-9.5-7.58a28.26,28.26,0,0,0,1.64,4.15c3.43,5.77,4.48,12.2,4.93,18.69.39,5.68-2.5,7.62-7.91,5.75-2-.7-4-1.54-6.68-2.57.26,2.35.54,4.15.61,6,0,1-.06,2.8-.48,2.92-1.19.35-2.92.5-3.81-.14a27.84,27.84,0,0,1-4.66-4.79,16.88,16.88,0,0,1-1.84-3c-6-11.34-15.82-16.26-28.2-17-.81,0-1.62-.21-2.43-.26-2.34-.14-3.8-1.24-3.87-3.68s1.66-3.26,3.65-3.65c4.18-.84,8.38-1.55,12.54-2.43a22.75,22.75,0,0,0,3.6-1.41c-.83-1.1-1.45-2.49-2.52-3.26-2.66-1.89-5.58-3.4-8.29-5.24s-2.89-3.74.26-5.16c2.66-1.21,5.71-1.62,8.63-2.16,3.21-.6,6.46-.93,9.68-1.42C360.54,98.46,360.87,98.06,361.88,97.37Z"/><path d="M248.38,178.69a49.27,49.27,0,0,0,11.5-20.46c.85-3,1.1-6.08,1.75-9.1.37-1.72.47-3.92,2.83-4.13a4.94,4.94,0,0,1,5.1,2.92c1.61,3.17,1.54,6.48,1,9.86-1.08,6.89-4.87,12.49-9,17.69a152.55,152.55,0,0,1-13.39,14.24c-8.11,7.82-10.65,17.67-11.16,28.42-.28,5.82-.69,11.62-1.08,17.43a6.62,6.62,0,0,1-.6,3.17c-.73,1.05-2,2.37-3.06,2.38a4.85,4.85,0,0,1-3.57-2,7.88,7.88,0,0,1-.83-4.47c1.09-18.52-3.3-36.09-9.05-53.44a25.53,25.53,0,0,1-1.23-4.73,3.19,3.19,0,0,1,.83-2.59,3.25,3.25,0,0,1,2.76,0,12.06,12.06,0,0,1,2.94,2.38c1,1,1.92,2.2,3,3.19,3.8,3.57,7.22,2.63,8.69-2.38.49-1.65.7-3.39,1.26-5,.81-2.33-.15-3.36-2.33-3.87-5.3-1.21-5.39-1.24-5.38-6.81,0-12.16-2.89-23.34-11.44-32.34-5.75-6.06-12.22-11.33-20.16-14.5a31.13,31.13,0,0,1-6.72-3.57,5,5,0,0,1-1.44-3.61c0-.45,1.94-1.33,3-1.33,7.55,0,14,3.2,20.37,6.89a53.14,53.14,0,0,1,18.38,18.24c2.59,4.11,5.23,8.22,7.55,12.49,1.15,2.11,1.56,4.62,2.43,6.9a8.87,8.87,0,0,0,1.46,1.95c.3-.77.93-1.57.86-2.31-.72-7.86-2.55-15.41-6.93-22.14-2.16-3.33-4.53-6.53-6.44-10-.83-1.5-1.59-4.27-.84-5.13,1.59-1.83,4.1-.78,6,.37,5.36,3.21,8.87,8.19,12.45,13.16,8.37,11.62,7.43,24.18,4.11,37-1.28,4.95-2.94,9.81-4.43,14.71Z"/><path d="M447.27,183a46.1,46.1,0,0,0,2.64,5.37c3.51,5.32,6.58,10.85,7.87,17.13,1.79,8.73-.58,16.66-5.21,24.06-.38.61-.68,1.28-1,1.92l-1.05-.52a19.18,19.18,0,0,1-.66-3.22c-.17-5-.24-10-.34-15-.12-6.06-2.55-11.29-6.06-16.05-.58-.8-1.81-1.11-2.75-1.65a8.62,8.62,0,0,0,.23,2.95c3.38,7.24,2.53,14.82,1.49,22.26-1,7-2.81,13.82-4.14,20.74-.36,1.86-.21,3.81-.41,5.71-.13,1.3-.46,2.58-.7,3.87l-.75.18a16.38,16.38,0,0,1-1.87-2.32,28.87,28.87,0,0,1-3.51-18.4c.69-4.76,1.12-9.56,1.66-14.35a5.67,5.67,0,0,0,.11-1.63c-.29-1.35-.7-2.68-1.06-4a16.59,16.59,0,0,0-3.19,2.21c-2.38,2.63-4.94,5-8.6,5.3-1.45.13-3.48-.26-4.32-1.23-.64-.72-.2-3,.46-4.13,1.72-3,3.91-5.84,5.73-8.83a3.18,3.18,0,0,0-.06-2.61c-2-4.13-4.24-8.19-6.36-12.29a62.44,62.44,0,0,1-2.93-5.84c-2.28-5.7-2-11.15,2.64-15.6,2.88-2.78,3.2-5.55,1.6-9a18.71,18.71,0,0,1-.1-16.11,11.47,11.47,0,0,1,2.2-2.56,16.2,16.2,0,0,1,2.36,2.4c1,1.49,1.72,3.13,2.55,4.71a13,13,0,0,0,14.1,7,37.7,37.7,0,0,1,6.43-1,4.23,4.23,0,0,1,3.24,1.81c.4.78-.28,2.46-1,3.37-2.58,3.44-2.59,3.39.43,6.61,4.19,4.49,8.67,8.79,12.25,13.73,2.14,3,3,6.94,4,10.57.35,1.24-.52,2.83-.84,4.27a16.11,16.11,0,0,1-3.74-1.69c-2-1.64-3.77-3.62-5.72-5.37-1.44-1.28-3-2.41-4.54-3.61Z"/><path d="M75.59,190.28c-1.22,2.66-2,4.88-3.19,6.86-3.25,5.47-6.89,10.71-9.94,16.28-2.13,3.88-3.16,8.15-1.8,12.71,1,3.34,2.41,6.15,5.61,8,1.26.73,2.91,2.75,2.65,3.71-.59,2.14-3,2.07-4.88,1.72A39.55,39.55,0,0,1,59.13,238c-2.92-.95-3.87-.54-5.09,2.3A22,22,0,0,0,53,243.35c-1.36,5.12-4.42,9.14-8.25,12.59-.8.72-2.66,1.32-3.31.89a5.13,5.13,0,0,1-1.61-3.42c-.12-1,.59-2,.95-3a19.18,19.18,0,0,0,1.35-3.8,157.28,157.28,0,0,0,1.49-15.88c.12-7.12.76-14,5-20,1.33-1.91,1.12-3.59-.71-5.27-2.34-2.15-2.25-3.51.69-4.93A106.81,106.81,0,0,1,62.12,195c3.65-1.18,6.57-2.33,6.45-7-.07-2.32,1.61-3.18,3.52-1.89C73.49,187,74.36,188.75,75.59,190.28Z"/><path d="M330.79,230.44c2.78.91,5.55,1.84,8.35,2.72,4.75,1.48,9.64,2.63,14.23,4.5a20.3,20.3,0,0,1,6.61,5c.81.86.74,2.88.47,4.26-.09.42-2.24.74-3.37.57-3.85-.58-7.69-1.32-11.5-2.17-2.36-.52-3.51.14-3.4,2.63a7.78,7.78,0,0,1-.1,1.36c-.4,3.18-1.7,4-4.33,2.14a85.52,85.52,0,0,1-9.68-7.82c-5.15-4.85-10.15-9.86-15-15-4.6-4.84-9.9-8.13-16.59-9.16a69.89,69.89,0,0,1-8.73-2.14,41.1,41.1,0,0,1-4.4-1.83c2.37-3.09,5.25-4.45,8.67-3.8,5.07,1,10.1,2.21,15.09,3.54,6.92,1.84,13.81,3.84,20.69,5.87a13.2,13.2,0,0,1,4.4,2c2.58,2,1.88,5.33-1.19,6.39Z"/><path d="M79.31,266.26c.18-2.83.13-5.7.59-8.48,1.78-10.72,7.64-19.23,14.81-27.06,2-2.16,3.24-4.94,5-7.33.8-1.1,2-2.81,2.87-2.73a4.6,4.6,0,0,1,3.32,2.62,16.71,16.71,0,0,1,.29,6.58c-.29,2.32-1.28,4.54-1.74,6.85-.51,2.57.23,3.17,2.75,2.55a57.31,57.31,0,0,1,7.12-1.65c1.14-.12,3,.5,3.43,1.35s-.09,2.72-.83,3.61a15,15,0,0,1-4.55,3.8c-8.1,4.1-12.51,10.72-14,19.51a37.18,37.18,0,0,1-1.93,7.62,5,5,0,0,1-3.22,2.35c-.5.11-1.89-1.62-2.13-2.69-.67-3-.8-6.11-1.44-9.11-.28-1.26-1.08-2.93-2.09-3.34-.76-.32-2.42.85-3.33,1.72a37.74,37.74,0,0,0-3.42,4.28Z"/></symbol></defs><title>Asset 2</title><g id="Layer_2" data-name="Layer 2"><g id="Layer_1-2" data-name="Layer 1"><use width="512.15" height="512.15" xlink:href="#Doodle"/></g></g></svg>